<?xml version="1.0" standalone="no"?>
<!DOCTYPE svg PUBLIC "-//W3C//DTD SVG 20010904//EN"
 "http://www.w3.org/TR/2001/REC-SVG-20010904/DTD/svg10.dtd">
<svg version="1.0" xmlns="http://www.w3.org/2000/svg"
 width="512.000000pt" height="512.000000pt" viewBox="0 0 512.000000 512.000000"
 preserveAspectRatio="xMidYMid meet">

<g transform="translate(0.000000,512.000000) scale(0.100000,-0.100000)"
fill="currentColor" stroke="none">
<path d="M3573 5104 c-25 -9 -57 -33 -77 -56 -79 -91 -70 -224 28 -424 l56
-112 -21 -46 c-64 -146 -63 -363 4 -521 128 -306 466 -487 782 -420 39 8 93
24 121 35 l51 21 75 -41 c268 -144 470 -121 518 60 27 100 -19 256 -129 441
l-68 114 -6 97 c-10 156 -61 286 -157 401 -130 156 -301 243 -500 254 l-95 6
-112 67 c-195 117 -366 163 -470 124z m168 -200 c50 -15 149 -60 149 -68 0 -2
-26 -19 -57 -39 -32 -19 -69 -47 -82 -61 -14 -14 -30 -26 -37 -26 -22 0 -81
166 -70 196 7 18 30 18 97 -2z m589 -210 c79 -18 166 -67 230 -130 192 -188
198 -494 14 -693 l-52 -56 -95 73 c-197 150 -460 420 -586 600 l-24 34 42 42
c119 121 295 170 471 130z m-463 -554 c132 -150 333 -341 418 -396 25 -16 26
-19 9 -25 -11 -4 -46 -8 -79 -8 -232 -3 -447 170 -494 397 -12 59 -14 144 -4
181 l6 24 21 -29 c12 -16 67 -81 123 -144z m1003 -312 c38 -79 58 -164 42
-180 -14 -14 -84 3 -161 38 l-54 24 40 43 c22 24 52 64 67 90 16 26 30 47 32
47 3 0 18 -28 34 -62z"/>
<path d="M1511 4646 c-36 -20 -50 -55 -51 -123 l0 -63 -60 0 c-71 0 -107 -15
-126 -51 -43 -83 13 -149 125 -149 l61 0 0 -60 c0 -71 12 -101 50 -123 81 -48
150 8 150 122 l0 61 60 0 c71 0 101 12 123 50 21 34 21 62 3 99 -19 36 -55 51
-126 51 l-60 0 0 60 c0 71 -15 107 -51 126 -34 17 -67 17 -98 0z"/>
<path d="M2370 3850 c-525 -73 -894 -372 -1045 -845 -22 -68 -24 -70 -66 -83
-24 -8 -96 -29 -159 -49 -314 -95 -535 -234 -607 -381 -37 -75 -39 -182 -6
-255 58 -126 233 -252 484 -347 l87 -33 4 -87 c3 -69 10 -98 31 -143 81 -165
294 -216 446 -107 48 35 98 108 107 157 3 18 10 36 15 39 11 7 225 -17 241
-27 8 -5 -45 -129 -163 -380 l-175 -373 -172 -37 c-271 -58 -472 -84 -747 -94
-88 -4 -173 -11 -188 -17 -24 -9 -44 -42 -123 -200 l-94 -188 -81 0 c-90 0
-129 -14 -147 -55 -23 -51 -9 -101 38 -128 25 -15 74 -17 439 -17 273 0 418 4
434 11 28 13 57 58 57 89 0 33 -26 75 -55 88 -18 8 -97 12 -246 12 l-219 0 49
99 50 99 128 6 c321 18 521 47 898 133 232 54 259 58 375 58 140 0 215 -16
316 -65 104 -51 183 -146 184 -222 0 -57 47 -108 99 -108 53 0 101 50 101 107
1 76 79 172 184 223 101 49 176 65 316 64 116 0 144 -4 375 -56 289 -66 375
-82 540 -102 119 -15 376 -36 447 -36 38 0 38 0 88 -100 l50 -100 -860 0
c-727 0 -865 -2 -888 -14 -15 -8 -65 -53 -112 -100 l-85 -86 -155 0 -155 0
-85 86 c-47 47 -97 92 -112 100 -36 18 -433 20 -473 2 -46 -21 -67 -82 -44
-131 23 -50 52 -57 246 -57 l179 0 69 -71 c39 -39 88 -84 109 -100 l39 -29
224 0 c175 0 230 3 251 14 15 8 65 53 112 100 l85 86 1017 0 c710 0 1024 3
1041 11 28 13 57 58 57 89 0 33 -26 75 -55 88 -14 7 -62 12 -105 12 l-80 0
-94 188 c-106 212 -106 212 -216 212 -224 0 -595 44 -865 103 l-149 33 -175
372 c-96 205 -171 375 -167 379 8 8 227 35 242 29 6 -2 14 -20 18 -38 9 -50
59 -123 107 -158 112 -81 257 -77 367 10 72 56 105 128 110 240 l4 87 87 33
c186 70 321 150 409 244 73 77 97 132 97 226 0 101 -31 165 -125 253 -117 111
-290 197 -550 272 -169 49 -167 48 -175 87 -12 56 -76 209 -118 283 -176 306
-468 505 -847 580 -99 20 -374 28 -470 15z m357 -200 c515 -65 860 -410 923
-924 6 -49 10 -90 8 -91 -9 -9 -257 -69 -408 -99 -282 -56 -424 -70 -690 -70
-266 0 -408 14 -690 70 -151 30 -399 90 -408 99 -6 6 20 185 39 257 73 287
256 518 514 646 120 60 226 90 405 116 55 8 230 5 307 -4z m-1465 -1020 c-5
-93 8 -134 48 -155 68 -35 447 -128 670 -164 224 -36 341 -45 580 -45 368 -1
706 49 1114 164 177 50 191 65 184 200 -3 66 -1 80 12 80 33 0 261 -83 356
-130 103 -50 193 -120 219 -171 52 -99 -45 -212 -256 -300 -387 -160 -1288
-276 -1864 -240 -362 23 -775 77 -1042 137 -449 100 -684 256 -608 403 26 51
116 121 219 171 95 47 323 130 356 130 13 0 15 -14 12 -80z m120 -856 c90 -19
95 -29 44 -80 -24 -24 -43 -34 -66 -34 -47 0 -100 55 -100 105 0 34 2 37 22
32 12 -4 57 -14 100 -23z m2478 -10 c0 -28 -8 -44 -34 -70 -46 -46 -86 -46
-132 0 -52 52 -46 60 54 83 117 28 112 28 112 -13z m-1598 -187 c3 -76 9 -103
31 -149 84 -172 303 -219 455 -99 74 59 105 129 110 248 l4 94 66 -3 66 -3
107 -230 c60 -126 130 -277 157 -335 l49 -105 -151 0 c-114 -1 -168 -5 -219
-19 -139 -37 -250 -94 -336 -171 l-41 -37 -49 44 c-151 131 -363 197 -597 185
-94 -4 -103 -3 -95 12 5 9 71 149 146 311 75 162 144 307 151 323 14 25 19 27
78 27 l64 0 4 -93z m398 17 c0 -62 -2 -68 -34 -100 -46 -46 -86 -46 -132 0
-32 32 -34 38 -34 100 l0 66 100 0 100 0 0 -66z"/>
<path d="M2375 3444 c-310 -52 -541 -227 -646 -489 -37 -94 -37 -128 0 -166
23 -22 39 -29 70 -29 54 0 81 28 115 118 84 222 292 358 576 378 104 7 131 17
153 53 20 34 21 60 5 96 -25 56 -107 67 -273 39z"/>
<path d="M711 3646 c-36 -20 -50 -55 -51 -123 l0 -63 -60 0 c-71 0 -107 -15
-126 -51 -43 -83 13 -149 125 -149 l61 0 0 -60 c0 -71 12 -101 50 -123 81 -48
150 8 150 122 l0 61 60 0 c71 0 101 12 123 50 21 34 21 62 3 99 -19 36 -55 51
-126 51 l-60 0 0 60 c0 71 -15 107 -51 126 -34 17 -67 17 -98 0z"/>
<path d="M1281 386 c-66 -37 -67 -131 -1 -169 50 -30 104 -16 133 33 52 88
-42 186 -132 136z"/>
</g>
</svg>
